<?xml version="1.0" encoding="utf-8"?>
<!-- Generator: Adobe Illustrator 23.0.4, SVG Export Plug-In . SVG Version: 6.00 Build 0)  -->
<svg version="1.1" id="svg2999" xmlns:svg="http://www.w3.org/2000/svg"
	 xmlns="http://www.w3.org/2000/svg" xmlns:xlink="http://www.w3.org/1999/xlink" x="0px" y="0px" viewBox="0 0 170 205"
	 style="enable-background:new 0 0 170 205;" xml:space="preserve">
<style type="text/css">
	.st0{fill:#59ACF3;stroke:#59ACF3;stroke-width:5;stroke-linejoin:round;}
</style>
<path id="path3007" class="st0" d="M163.4,69.2h-14.5V49.1l-26.6,26.6c9.5,12,14.3,25.6,14.3,40.8c0,18-6.4,33.3-19.2,46.1
	c-12.8,12.8-28.2,19.2-46.1,19.2s-33.3-6.4-46.1-19.2S6,134.5,6,116.5c0-17.8,6.4-33.2,19.2-45.9C38,57.8,53.4,51.4,71.3,51.4
	c15.3,0,28.9,4.7,40.8,14.2L138.7,39h-20.1V24.5h44.8L163.4,69.2z M71.3,167.4c13.9,0,25.9-5,35.8-14.9c10-10,15-22,15-36
	s-5-25.9-14.9-35.8c-9.9-9.9-21.9-14.9-35.9-14.9c-13.9,0-25.9,5-35.8,14.9c-10,9.9-14.9,21.9-14.9,35.8c0,14,4.9,26,14.9,36
	C45.4,162.4,57.4,167.4,71.3,167.4z"/>
</svg>
