<?xml version="1.0" encoding="utf-8"?>
<!-- Generator: Adobe Illustrator 23.0.4, SVG Export Plug-In . SVG Version: 6.00 Build 0)  -->
<svg version="1.1" id="svg2999" xmlns:svg="http://www.w3.org/2000/svg"
	 xmlns="http://www.w3.org/2000/svg" xmlns:xlink="http://www.w3.org/1999/xlink" x="0px" y="0px" viewBox="0 0 143 205"
	 style="enable-background:new 0 0 143 205;" xml:space="preserve">
<style type="text/css">
	.st0{fill:#F35AD8;stroke:#F35AD8;stroke-width:5;stroke-linejoin:round;}
</style>
<path id="path3005" class="st0" d="M64,135.6c-17.2-2.1-31.1-9.4-41.8-21.8C11.5,101.3,6.1,87,6.1,70.8c0-17.9,6.4-33.3,19.1-46.1
	C38,12,53.3,5.6,71.4,5.6c17.9,0,33.2,6.4,46,19.2c12.8,12.8,19.2,28.2,19.2,46c0,16.1-5.4,30.5-16.1,43
	c-10.8,12.4-24.8,19.7-41.9,21.8v24.5h24.2v14.5H78.6v24.2H64v-24.2H40v-14.5H64L64,135.6z M71.4,121.6c13.9,0,25.9-5,35.8-14.9
	c9.9-9.9,14.9-21.8,14.9-35.8c0-14-4.9-26-14.9-35.9c-9.9-9.9-21.8-14.9-35.8-14.9c-14,0-26,5-35.9,14.9
	c-9.9,10-14.9,21.9-14.9,35.8c0,14,5,26,14.9,35.8C45.4,116.6,57.4,121.6,71.4,121.6z"/>
</svg>
